<?xml version="1.0" standalone="no"?>
<!DOCTYPE svg PUBLIC "-//W3C//DTD SVG 20010904//EN"
 "http://www.w3.org/TR/2001/REC-SVG-20010904/DTD/svg10.dtd">
<svg version="1.0" xmlns="http://www.w3.org/2000/svg"
 width="512.000000pt" height="512.000000pt" viewBox="0 0 512.000000 512.000000"
 preserveAspectRatio="xMidYMid meet">
<metadata>
Created by potrace 1.11, written by Peter Selinger 2001-2013
</metadata>
<g transform="translate(0.000000,512.000000) scale(0.100000,-0.100000)"
fill="#000000" stroke="none">
<path d="M2338 5115 c-2 -2 -34 -6 -71 -9 -77 -7 -293 -49 -377 -73 -97 -27
-245 -75 -255 -83 -5 -4 -28 -13 -50 -20 -22 -7 -48 -19 -57 -28 -10 -8 -18
-12 -18 -9 0 7 -162 -73 -235 -116 -140 -84 -274 -179 -378 -268 -97 -84 -317
-309 -317 -325 0 -3 -13 -19 -30 -37 -16 -18 -30 -35 -30 -39 0 -5 -9 -17 -19
-27 -39 -39 -143 -206 -221 -356 -111 -214 -216 -529 -246 -740 -3 -27 -8 -59
-10 -70 -26 -140 -25 -580 1 -710 3 -11 7 -36 9 -55 13 -92 66 -318 86 -365 4
-11 22 -60 40 -110 50 -140 170 -378 262 -515 95 -144 197 -272 210 -268 11 4
1748 1739 1749 1747 4 24 3 2471 -1 2472 -3 0 -13 2 -22 4 -9 2 -18 2 -20 0z"/>
<path d="M2739 5112 c-3 -23 -4 -2349 -1 -2359 3 -10 250 -13 1189 -13 l1186
0 -7 73 c-11 119 -14 143 -36 250 -92 441 -291 849 -575 1175 -143 164 -381
372 -534 467 -9 6 -27 17 -41 26 -244 159 -650 315 -923 354 -27 3 -59 8 -70
11 -12 2 -49 7 -82 10 -33 3 -70 7 -82 9 -13 2 -23 1 -24 -3z"/>
<path d="M2900 2381 c0 -3 349 -354 774 -779 l774 -774 76 89 c66 76 266 360
266 378 0 3 17 36 38 73 34 61 58 111 109 228 9 21 18 44 19 49 2 6 17 50 34
98 59 170 106 390 125 583 l5 61 -1110 0 c-610 0 -1110 -3 -1110 -6z"/>
<path d="M1692 1447 l-812 -814 46 -39 c26 -21 57 -45 68 -53 12 -8 23 -18 26
-21 12 -14 144 -102 235 -157 87 -52 169 -94 320 -163 51 -24 277 -100 313
-106 15 -2 38 -9 52 -14 14 -5 52 -14 85 -21 67 -14 68 -14 145 -24 30 -4 57
-9 60 -11 4 -1 49 -6 100 -10 189 -15 493 -6 599 17 24 5 50 8 57 5 8 -3 16
-1 19 4 3 5 13 8 23 8 21 -1 173 35 267 64 39 12 75 22 80 24 63 13 348 143
460 209 73 43 216 135 225 145 3 3 31 24 63 48 31 23 57 45 57 48 0 5 -1667
1674 -1672 1674 -2 0 -369 -366 -816 -813z"/>
</g>
</svg>
